<svg width="512" height="511.999" xmlns="http://www.w3.org/2000/svg">

 <g>
  <title>background</title>
  <rect fill="none" id="canvas_background" height="402" width="582" y="-1" x="-1"/>
 </g>
 <g>
  <title>Layer 1</title>
  <path id="svg_3" fill="#3e73a9" d="m512,255.998001c0,141.376022 -114.627014,255.999985 -256,255.999985c-14.276993,0 -28.281006,-1.169983 -41.923004,-3.431976c-24.065002,-3.945007 -46.985001,-11.265015 -68.276993,-21.445007c-86.227001,-41.169006 -145.800003,-129.207001 -145.800003,-231.123001c0,-141.400002 114.626999,-255.998001 256,-255.998001c101.826996,0 189.77298,59.452 231.003998,145.557999c10.238007,21.354004 17.588013,44.363998 21.562012,68.488998c2.256989,13.641006 3.43399,27.67601 3.43399,41.951004z"/>
  <path fill="#000205" id="svg_4" opacity="0.15" d="m512,255.998001c0,141.376022 -114.627014,255.999985 -256,255.999985c-14.276993,0 -28.281006,-1.169983 -41.923004,-3.431976c-50.687988,-50.600006 -111.376999,-111.469025 -113.365997,-114.026001c-7.768997,-9.904022 -12.014999,-22.016022 -12.014999,-34.815002c0,-12.289001 3.945999,-23.944 11.141998,-33.643005c1.658005,-2.229004 3.435005,-4.395996 5.423004,-6.412994l65.957993,-65.960007c10.723007,-10.723007 24.965012,-16.591995 40.115005,-16.591995c11.085007,0 21.714996,3.194 30.807999,9.123001l4.100006,-4.123001c-5.934998,-9.098007 -9.131012,-19.699997 -9.131012,-30.813004c0,-15.147995 5.908005,-29.363007 16.600021,-40.056l65.953995,-65.986c10.727997,-10.692001 24.937988,-16.594002 40.058014,-16.594002c15.149994,0 29.365997,5.902 40.088989,16.594002c44.907013,44.935005 76.708008,76.708992 108.753998,108.785011c2.256989,13.640991 3.43399,27.675995 3.43399,41.950989z"/>
  <path id="svg_7" fill="#C8CCCC" d="m258.29599,260.61499l-2.419006,-2.416992l-4.495987,-4.49501c-10.700012,-10.701996 -24.938004,-16.599991 -40.062012,-16.599991c-15.145996,0 -29.384995,5.897995 -40.084991,16.599991l-65.961006,65.965988c-10.681,10.70401 -16.576996,24.913025 -16.576996,40.060028c0,15.122986 5.895996,29.356995 16.576996,40.064972l6.931,6.907013c10.708,10.70401 24.915001,16.604004 40.062004,16.604004c15.123001,0 29.356995,-5.899994 40.061996,-16.576996l42.065002,-42.08902l23.903,-23.898987c10.700012,-10.705994 16.600006,-24.917999 16.600006,-40.062988c0,-15.118988 -5.899994,-29.355988 -16.600006,-40.062012zm-11.953995,68.197998l-23.876999,23.899994l-42.084,42.062012c-15.508011,15.537994 -40.715012,15.537994 -56.254005,0l-6.908005,-6.934998c-15.534996,-15.511993 -15.534996,-40.712006 0,-56.218994l65.965004,-65.993011c15.535004,-15.509995 40.710999,-15.509995 56.242004,0l4.5,4.52301l2.416,2.414001c7.480988,7.457977 11.662003,17.562988 11.662003,28.112c0,10.54599 -4.181,20.681 -11.662003,28.135986z"/>
  <path id="svg_8" fill="#91d4c6" d="m246.341995,272.565002l-2.416,-2.414001l-4.5,-4.52301c-15.530991,-15.509995 -40.707993,-15.509995 -56.242004,0l-65.964989,65.993011c-15.535004,15.506989 -15.535004,40.707001 0,56.218994l6.907997,6.934998c15.539001,15.537994 40.746002,15.537994 56.253998,0l42.084,-42.061981l23.876999,-23.900024c7.481003,-7.454987 11.662003,-17.589996 11.662003,-28.135986c0,-10.549011 -4.181,-20.653992 -11.662003,-28.112zm-11.922989,44.299011l-23.90799,23.898987l-42.062012,42.065002c-4.339005,4.335022 -10.076996,6.700012 -16.184998,6.700012c-6.104004,0 -11.869995,-2.36499 -16.184998,-6.700012l-6.908005,-6.914978c-4.337997,-4.33902 -6.707993,-10.077026 -6.707993,-16.185028c0,-6.100983 2.368996,-11.846985 6.707993,-16.184998l65.96199,-65.963989c4.312012,-4.311981 10.054001,-6.701996 16.184998,-6.701996c6.10701,0 11.846008,2.390015 16.162003,6.701996l4.518997,4.518005l2.419006,2.416992c4.307999,4.317017 6.699997,10.058014 6.699997,16.162018c0.001007,6.135986 -2.390991,11.875977 -6.69899,16.187988z"/>
  <path id="svg_9" fill="#91d4c6" d="m109.785004,404.298004l11.941994,-11.938019l-4.503998,-4.507996c-15.534996,-15.530975 -15.534996,-40.711975 0,-56.243988l65.965004,-65.967987c15.530991,-15.530014 40.710999,-15.530014 56.237991,0l4.508011,4.505981l11.945999,-11.941986l-4.508011,-4.505005c-10.699997,-10.700012 -24.931,-16.594009 -40.064987,-16.594009c-15.131012,0 -29.35701,5.893997 -40.065002,16.594009l-65.961006,65.96701c-10.699997,10.701996 -16.596001,24.932983 -16.596001,40.062988c0,15.13501 5.896004,29.360992 16.596001,40.062012l4.504005,4.506989z"/>
  <path id="svg_10" fill="#8269ad" d="m121.726997,392.359985l11.937996,-11.942017l-4.503998,-4.507965c-4.318993,-4.319 -6.703995,-10.069031 -6.703995,-16.181s2.385002,-11.861023 6.707993,-16.181l65.961014,-65.968018c4.322998,-4.322998 10.069,-6.700012 16.181,-6.700012c6.112,0 11.857986,2.377014 16.184982,6.700012l4.504013,4.505981l11.937988,-11.940002l-4.507996,-4.505981c-15.527008,-15.529999 -40.708008,-15.529999 -56.237991,0l-65.965004,65.968018c-15.534996,15.531982 -15.534996,40.712982 0,56.243988l4.503998,4.507996z"/>
  <path id="svg_12" fill="#C8CCCC" d="m406.718994,112.192001l-6.915009,-6.912003c-10.699982,-10.704002 -24.937988,-16.599998 -40.057983,-16.599998c-15.145996,0 -29.356995,5.895996 -40.062012,16.599998l-65.964996,65.962997c-10.699997,10.70401 -16.599991,24.914001 -16.599991,40.059998c0,15.123001 5.899994,29.360001 16.599991,40.063004l6.90802,6.90799c10.707977,10.706024 24.945984,16.60202 40.064972,16.60202c15.146027,0 29.357025,-5.895996 40.058014,-16.60202l11.79599,-11.762985l54.173004,-54.197998c10.70401,-10.702011 16.601013,-24.916 16.601013,-40.061996c-0.001007,-15.118011 -5.897003,-29.35701 -16.601013,-40.059006zm-11.923004,68.195999l-54.200012,54.169006l-11.791992,11.793991c-15.507996,15.534988 -40.712006,15.534988 -56.222992,0l-2.416016,-2.416992l-4.519989,-4.516998c-15.537994,-15.537003 -15.537994,-40.712006 0,-56.25l65.960999,-65.962006c15.535004,-15.536003 40.712006,-15.536003 56.25,0l6.937988,6.936996c7.450012,7.456009 11.639008,17.561996 11.639008,28.110001c0.002014,10.548004 -4.186981,20.681 -11.636993,28.136002z"/>
  <path id="svg_13" fill="#91d4c6" d="m394.79599,124.141998l-6.937988,-6.936996c-15.538025,-15.536003 -40.715027,-15.536003 -56.25,0l-65.960999,65.962006c-15.53801,15.537994 -15.53801,40.712997 0,56.25l4.519989,4.516998l2.415985,2.416992c15.511017,15.534988 40.715027,15.534988 56.223022,0l11.791992,-11.793991l54.200012,-54.169006c7.449982,-7.455994 11.638977,-17.587997 11.638977,-28.136002c-0.001984,-10.548004 -4.190979,-20.653992 -11.640991,-28.110001zm-11.953979,44.294998l-54.169006,54.195999l-11.791992,11.768997c-4.315002,4.338013 -10.080994,6.702011 -16.187988,6.702011c-6.104004,0 -11.847015,-2.363998 -16.188019,-6.702011l-2.415985,-2.416l-4.492004,-4.495987c-4.338013,-4.338013 -6.700012,-10.07901 -6.700012,-16.187012c0,-6.103989 2.362,-11.870987 6.700012,-16.184998l65.960999,-65.962997c4.315002,-4.311996 10.053986,-6.701996 16.187988,-6.701996c6.104004,0 11.846008,2.390999 16.181,6.701996l6.915009,6.912003c4.30899,4.335999 6.700012,10.078995 6.700012,16.184998s-2.392029,11.873001 -6.700012,16.184998z"/>
  <path id="svg_14" fill="#91d4c6" d="m258.210999,255.869003l11.946014,-11.940002l-4.508026,-4.505997c-15.530991,-15.531006 -15.530991,-40.710999 0,-56.242004l65.969025,-65.969002c15.530975,-15.530998 40.707977,-15.530998 56.237976,0l4.508026,4.508003l11.941986,-11.942001l-4.503998,-4.505997c-10.70401,-10.700005 -24.931,-16.594002 -40.065002,-16.594002s-29.356995,5.892998 -40.065002,16.594002l-65.960999,65.966995c-10.703995,10.699997 -16.600006,24.929001 -16.600006,40.063004c0,15.134995 5.896011,29.362 16.597,40.061996l4.503006,4.505005z"/>
  <path id="svg_15" fill="#8269ad" d="m270.15799,243.929001l11.937988,-11.942001l-4.503998,-4.505005c-4.319,-4.320999 -6.703979,-10.067001 -6.703979,-16.179001c0,-6.112991 2.384003,-11.856995 6.707977,-16.181l65.960999,-65.966995c4.323029,-4.322998 10.069,-6.704002 16.181,-6.704002s11.857025,2.381004 16.181,6.704002l4.508026,4.505997l11.937988,-11.939995l-4.507996,-4.508003c-15.529999,-15.530998 -40.707001,-15.530998 -56.238007,0l-65.968994,65.969009c-15.531006,15.530991 -15.531006,40.710999 0,56.241989l4.507996,4.505005z"/>
  <path fill="#8269ad" id="svg_16" opacity="0.1" d="m274.895996,300.677002c0,15.145996 -5.899994,29.356995 -16.600006,40.062988l-23.902985,23.899017c-3.381012,-3.377014 -7.535004,-7.533997 -11.927002,-11.927002c-3.945999,-3.946014 -8.054001,-8.054016 -11.95401,-11.950012l23.908005,-23.898987c4.307999,-4.312012 6.699997,-10.052002 6.699997,-16.187012c0,-6.104004 -2.391998,-11.845001 -6.699997,-16.161987l-2.419998,-2.416016l11.927002,-11.946014l11.949997,-11.953979l2.418991,2.416992c10.700012,10.706024 16.600006,24.943024 16.600006,40.062012z"/>
  <path fill="#8269ad" id="svg_17" opacity="0.1" d="m352.54599,246.511993l-11.79599,11.763c-10.700012,10.705994 -24.911011,16.60199 -40.058014,16.60199c-15.118988,0 -29.358002,-5.895996 -40.065002,-16.60199l-2.415985,-2.412003l11.953979,-11.929001l11.923004,-11.947998l2.416016,2.416c4.34198,4.337997 10.084991,6.701996 16.187988,6.701996c6.106995,0 11.873016,-2.363998 16.188019,-6.701996l11.791992,-11.768997c3.899994,3.897995 8.003998,8.001999 11.923004,11.924988c4.416992,4.417023 8.578003,8.573013 11.950989,11.95401z"/>
  <path id="svg_19" fill="#C8CCCC" d="m310.065002,204.022995l-118.145996,118.143997c7.100006,7.10199 17.677002,8.044006 23.619003,2.10199l96.625992,-96.628998c5.940002,-5.941986 5.001007,-16.514984 -2.098999,-23.616989z"/>
  <path id="svg_20" fill="#F3F7F7" d="m286.446014,201.921005l-96.626999,96.630997c-5.942001,5.940002 -5,16.510986 2.100006,23.61499l118.146011,-118.144989c-7.103027,-7.100998 -17.672028,-8.041 -23.619019,-2.100998z"/>
 </g>
</svg>